REM MD5 e977e0d749379f28605359ffdafa7a64
FILE "Tetris Plus (Europe).bin" BINARY
  TRACK 01 MODE2/2352
    INDEX 01 00:00:00
  TRACK 02 AUDIO
    INDEX 00 04:58:13
    INDEX 01 05:00:13
  TRACK 03 AUDIO
    INDEX 00 05:30:13
    INDEX 01 05:32:13
  TRACK 04 AUDIO
    INDEX 00 06:02:13
    INDEX 01 06:04:13
  TRACK 05 AUDIO
    INDEX 00 07:11:13
    INDEX 01 07:13:13
  TRACK 06 AUDIO
    INDEX 00 08:17:13
    INDEX 01 08:19:13
  TRACK 07 AUDIO
    INDEX 00 09:43:58
    INDEX 01 09:45:58
  TRACK 08 AUDIO
    INDEX 00 11:02:06
    INDEX 01 11:04:06
  TRACK 09 AUDIO
    INDEX 00 12:15:44
    INDEX 01 12:17:44
  TRACK 10 AUDIO
    INDEX 00 13:37:14
    INDEX 01 13:39:14
  TRACK 11 AUDIO
    INDEX 00 15:07:22
    INDEX 01 15:09:22
  TRACK 12 AUDIO
    INDEX 00 16:19:07
    INDEX 01 16:21:07
  TRACK 13 AUDIO
    INDEX 00 18:46:45
    INDEX 01 18:48:45
  TRACK 14 AUDIO
    INDEX 00 20:55:45
    INDEX 01 20:57:45
  TRACK 15 AUDIO
    INDEX 00 21:41:45
    INDEX 01 21:43:45
  TRACK 16 AUDIO
    INDEX 00 22:28:68
    INDEX 01 22:30:68
  TRACK 17 AUDIO
    INDEX 00 23:28:68
    INDEX 01 23:30:68
  TRACK 18 AUDIO
    INDEX 00 24:24:68
    INDEX 01 24:26:68
  TRACK 19 AUDIO
    INDEX 00 26:26:68
    INDEX 01 26:28:68
  TRACK 20 AUDIO
    INDEX 00 27:34:68
    INDEX 01 27:36:68
  TRACK 21 AUDIO
    INDEX 00 28:40:08
    INDEX 01 28:42:08
  TRACK 22 AUDIO
    INDEX 00 29:42:23
    INDEX 01 29:44:23
  TRACK 23 AUDIO
    INDEX 00 31:37:23
    INDEX 01 31:39:23
  TRACK 24 AUDIO
    INDEX 00 34:06:08
    INDEX 01 34:08:08
  TRACK 25 AUDIO
    INDEX 00 34:15:08
    INDEX 01 34:17:08
  TRACK 26 AUDIO
    INDEX 00 34:22:08
    INDEX 01 34:24:08
  TRACK 27 AUDIO
    INDEX 00 34:50:08
    INDEX 01 34:52:08
  TRACK 28 AUDIO
    INDEX 00 35:35:53
    INDEX 01 35:37:53
  TRACK 29 AUDIO
    INDEX 00 37:24:53
    INDEX 01 37:26:53
  TRACK 30 AUDIO
    INDEX 00 38:26:53
    INDEX 01 38:28:53
  TRACK 31 AUDIO
    INDEX 00 39:03:53
    INDEX 01 39:05:53
  TRACK 32 AUDIO
    INDEX 00 40:07:53
    INDEX 01 40:09:53
  TRACK 33 AUDIO
    INDEX 00 41:01:53
    INDEX 01 41:03:53
  TRACK 34 AUDIO
    INDEX 00 42:45:53
    INDEX 01 42:47:53
  TRACK 35 AUDIO
    INDEX 00 43:17:53
    INDEX 01 43:19:53
  TRACK 36 AUDIO
    INDEX 00 44:27:16
    INDEX 01 44:29:16
  TRACK 37 AUDIO
    INDEX 00 45:32:69
    INDEX 01 45:34:69
  TRACK 38 AUDIO
    INDEX 00 46:18:69
    INDEX 01 46:20:69
  TRACK 39 AUDIO
    INDEX 00 47:06:24
    INDEX 01 47:08:24
  TRACK 40 AUDIO
    INDEX 00 49:10:47
    INDEX 01 49:12:47
  TRACK 41 AUDIO
    INDEX 00 50:18:47
    INDEX 01 50:20:47
  TRACK 42 AUDIO
    INDEX 00 51:23:25
    INDEX 01 51:25:25
  TRACK 43 AUDIO
    INDEX 00 52:25:25
    INDEX 01 52:27:25
  TRACK 44 AUDIO
    INDEX 00 54:14:70
    INDEX 01 54:16:70
  TRACK 45 AUDIO
    INDEX 00 54:23:03
    INDEX 01 54:25:03
  TRACK 46 AUDIO
    INDEX 00 54:30:03
    INDEX 01 54:32:03
  TRACK 47 AUDIO
    INDEX 00 54:58:03
    INDEX 01 55:00:03
  TRACK 48 AUDIO
    INDEX 00 55:43:56
    INDEX 01 55:45:56
  TRACK 49 AUDIO
    INDEX 00 57:32:56
    INDEX 01 57:34:56
  TRACK 50 AUDIO
    INDEX 00 58:34:41
    INDEX 01 58:36:41
  TRACK 51 AUDIO
    INDEX 00 59:12:41
    INDEX 01 59:14:41
  TRACK 52 AUDIO
    INDEX 00 60:15:19
    INDEX 01 60:17:19
REM LEADOUT 63:47:19
